<svg width="400" height="400" viewBox="0 0 400 400" fill="none" xmlns="http://www.w3.org/2000/svg">
<g clip-path="url(#clip0_2141_869)">
<path d="M373.494 100.722L364.819 85.7823C362.41 81.445 357.108 79.9992 352.771 82.4089C352.289 82.8908 351.325 83.3727 350.843 83.8546L331.084 103.614C328.193 106.505 327.711 111.325 330.12 114.698C337.349 125.782 343.133 137.831 347.47 150.361C374.94 231.806 331.084 319.999 249.639 347.469C233.735 352.77 216.867 355.662 200 355.662C174.458 355.662 149.398 349.397 127.229 337.349L160.964 303.614C218.313 325.3 282.41 296.385 304.096 239.035C314.699 210.602 313.253 178.794 300.241 151.325C298.313 146.987 293.012 145.059 288.193 146.987C287.229 147.469 286.265 147.951 285.783 148.915L265.542 168.674C263.133 171.084 262.651 173.975 263.133 176.867L265.06 184.096C273.253 219.758 251.084 255.903 215.422 264.096C199.036 267.951 181.687 265.541 167.229 256.867L158.554 251.565C155.181 249.638 150.843 250.12 147.952 253.011L66.0241 334.939C62.6506 338.312 62.6506 344.096 66.0241 347.469C66.506 347.951 66.506 347.951 66.9879 348.433L79.0361 357.59C113.253 385.541 156.145 399.999 200 399.999C310.361 399.999 400 310.361 400 199.517C400 164.819 390.843 131.084 373.494 100.722Z" fill="url(#paint0_linear_2141_869)"/>
<path d="M321.446 41.4458C286.747 14.4578 243.855 0 200 0C89.6386 0 0 89.6386 0 200.482C0 235.181 9.15663 269.398 26.0241 299.277L34.6988 314.217C37.1084 318.554 42.4096 320 46.747 317.59C47.2289 317.108 48.1928 316.627 48.6747 316.145L68.4337 296.386C71.3253 293.494 71.8072 288.675 69.3976 285.301C62.1687 274.217 56.3855 262.169 52.0482 249.639C24.5783 168.193 68.4337 80 149.88 52.5301C165.783 47.2289 182.651 44.3374 199.518 44.3374C225.06 44.3374 250.12 50.6024 272.289 62.6506L238.554 96.3855C181.205 74.6988 117.108 103.614 95.4217 160.964C90.6024 173.494 88.1928 186.988 88.1928 200.482C88.1928 202.41 88.6747 210.602 88.6747 212.048C90.1205 224.578 93.494 237.108 99.2771 248.675C101.205 253.012 106.506 254.94 111.325 253.012C112.289 252.53 113.253 252.048 113.735 251.084L133.976 230.843C136.386 228.434 136.867 225.542 136.386 222.651L134.94 215.422C126.747 179.759 148.916 143.614 184.578 135.422C200.964 131.566 218.313 133.976 232.771 142.651L241.446 147.952C244.819 149.88 249.157 149.398 252.048 146.506L333.976 64.5783C337.349 61.2048 337.349 55.4217 333.976 52.0482C333.494 51.5663 333.494 51.5663 333.012 51.0843L321.446 41.4458Z" fill="url(#paint1_linear_2141_869)"/>
</g>
<defs>
<linearGradient id="paint0_linear_2141_869" x1="129.458" y1="412.722" x2="411.011" y2="131.169" gradientUnits="userSpaceOnUse">
<stop stop-color="#B090F5"/>
<stop offset="1" stop-color="#5FBFFF"/>
</linearGradient>
<linearGradient id="paint1_linear_2141_869" x1="-11.0949" y1="268.843" x2="270.497" y2="-12.7316" gradientUnits="userSpaceOnUse">
<stop stop-color="#68D7FA"/>
<stop offset="1" stop-color="#4EE498"/>
</linearGradient>
<clipPath id="clip0_2141_869">
<rect width="400" height="400" fill="white"/>
</clipPath>
</defs>
</svg>
