<svg width="400" height="400" viewBox="0 0 400 400" fill="none" xmlns="http://www.w3.org/2000/svg">
<g clip-path="url(#clip0_1993_738)">
<rect width="400" height="400" rx="200" fill="#10110E"/>
<path d="M189.15 232.8H60L81 211.8H207.35L189.15 232.8ZM226.25 194.3H60L81 173.3H244.45L226.25 194.3ZM127.55 227.9C131.05 241.433 136.65 252.867 144.35 262.2C152.283 271.533 161.617 278.65 172.35 283.55C183.083 288.217 194.4 290.55 206.3 290.55C217.267 290.55 227.417 288.567 236.75 284.6C246.317 280.633 254.483 274.8 261.25 267.1C268.25 259.167 273.383 249.483 276.65 238.05H302.55C300.217 254.383 294.617 268.5 285.75 280.4C276.883 292.3 265.567 301.517 251.8 308.05C238.267 314.35 223.1 317.5 206.3 317.5C192.767 317.5 180.05 315.517 168.15 311.55C156.483 307.35 145.867 301.4 136.3 293.7C126.967 285.767 119.033 276.317 112.5 265.35C106.2 254.15 101.65 241.667 98.85 227.9H127.55ZM268.25 142.85C261.717 132.117 252.967 123.95 242 118.35C231.267 112.75 219.367 109.95 206.3 109.95C193.7 109.95 181.8 112.633 170.6 118C159.4 123.367 149.833 131.183 141.9 141.45C134.2 151.717 128.95 164.433 126.15 179.6H97.8C99.9 164.667 104.1 151.25 110.4 139.35C116.7 127.45 124.633 117.3 134.2 108.9C143.767 100.5 154.617 94.0833 166.75 89.65C179.117 85.2167 192.3 83 206.3 83C223.567 83 239.083 86.3833 252.85 93.15C266.85 99.6833 278.167 109.133 286.8 121.5L268.25 142.85Z" fill="white"/>
</g>
<defs>
<clipPath id="clip0_1993_738">
<rect width="400" height="400" fill="white"/>
</clipPath>
</defs>
</svg>
