<svg width="400" height="420" viewBox="0 0 400 420" fill="none" xmlns="http://www.w3.org/2000/svg">
<rect y="10" width="400" height="400" rx="200" fill="#10110E"/>
<path d="M196.15 242.8H67L88 221.8H214.35L196.15 242.8ZM233.25 204.3H67L88 183.3H251.45L233.25 204.3ZM134.55 237.9C138.05 251.433 143.65 262.867 151.35 272.2C159.283 281.533 168.617 288.65 179.35 293.55C190.083 298.217 201.4 300.55 213.3 300.55C224.267 300.55 234.417 298.567 243.75 294.6C253.317 290.633 261.483 284.8 268.25 277.1C275.25 269.167 280.383 259.483 283.65 248.05H309.55C307.217 264.383 301.617 278.5 292.75 290.4C283.883 302.3 272.567 311.517 258.8 318.05C245.267 324.35 230.1 327.5 213.3 327.5C199.767 327.5 187.05 325.517 175.15 321.55C163.483 317.35 152.867 311.4 143.3 303.7C133.967 295.767 126.033 286.317 119.5 275.35C113.2 264.15 108.65 251.667 105.85 237.9H134.55ZM275.25 152.85C268.717 142.117 259.967 133.95 249 128.35C238.267 122.75 226.367 119.95 213.3 119.95C200.7 119.95 188.8 122.633 177.6 128C166.4 133.367 156.833 141.183 148.9 151.45C141.2 161.717 135.95 174.433 133.15 189.6H104.8C106.9 174.667 111.1 161.25 117.4 149.35C123.7 137.45 131.633 127.3 141.2 118.9C150.767 110.5 161.617 104.083 173.75 99.65C186.117 95.2167 199.3 93 213.3 93C230.567 93 246.083 96.3833 259.85 103.15C273.85 109.683 285.167 119.133 293.8 131.5L275.25 152.85Z" fill="white"/>
</svg>
