<svg width="400" height="420" viewBox="0 0 400 420" fill="none" xmlns="http://www.w3.org/2000/svg">
<rect y="14" width="400" height="400" rx="200" fill="#10110E"/>
<path d="M128.9 232.3V211.3H233.9V232.3H128.9ZM196.8 253.65C196.8 260.183 195.633 266.017 193.3 271.15C191.2 276.283 188.633 280.717 185.6 284.45C182.567 287.95 179.533 290.867 176.5 293.2C173.467 295.3 171.133 296.817 169.5 297.75H262.25V324H139.75V297.75C139.75 297.75 140.683 297.167 142.55 296C144.65 294.833 147.217 293.083 150.25 290.75C153.283 288.417 156.2 285.5 159 282C162.033 278.5 164.483 274.417 166.35 269.75C168.45 264.85 169.5 259.483 169.5 253.65C169.5 248.75 168.683 243.967 167.05 239.3C165.65 234.4 163.667 229.5 161.1 224.6C160.867 223.9 160.517 223.317 160.05 222.85C159.817 222.15 159.467 221.567 159 221.1C158.767 220.4 158.533 219.817 158.3 219.35C158.067 218.65 157.717 217.95 157.25 217.25C154.917 212.583 152.467 207.8 149.9 202.9C147.333 197.767 144.883 192.633 142.55 187.5C140.45 182.133 138.7 176.767 137.3 171.4C136.133 165.8 135.55 160.2 135.55 154.6C135.55 141.767 138.35 130.8 143.95 121.7C149.783 112.6 157.6 105.6 167.4 100.7C177.2 95.5667 188.283 93 200.65 93C210.45 93 219.317 94.6333 227.25 97.9C235.183 100.933 241.95 105.25 247.55 110.85C253.383 116.45 257.817 122.983 260.85 130.45C263.883 137.917 265.4 145.967 265.4 154.6H237.4C237.4 147.6 235.767 141.417 232.5 136.05C229.233 130.683 224.8 126.6 219.2 123.8C213.6 120.767 207.417 119.25 200.65 119.25C194.35 119.25 188.4 120.533 182.8 123.1C177.2 125.433 172.533 129.283 168.8 134.65C165.3 139.783 163.55 146.433 163.55 154.6C163.55 163.933 165.183 172.8 168.45 181.2C171.95 189.367 175.8 197.3 180 205C184.433 212.7 188.283 220.517 191.55 228.45C195.05 236.383 196.8 244.783 196.8 253.65Z" fill="white"/>
</svg>
