<svg width="400" height="400" viewBox="0 0 400 400" fill="none" xmlns="http://www.w3.org/2000/svg">
<g clip-path="url(#clip0_1996_777)">
<rect width="400" height="400" rx="200" fill="#10110E"/>
<path d="M129.9 222.3V201.3H234.9V222.3H129.9ZM197.8 243.65C197.8 250.183 196.633 256.017 194.3 261.15C192.2 266.283 189.633 270.717 186.6 274.45C183.567 277.95 180.533 280.867 177.5 283.2C174.467 285.3 172.133 286.817 170.5 287.75H263.25V314H140.75V287.75C140.75 287.75 141.683 287.167 143.55 286C145.65 284.833 148.217 283.083 151.25 280.75C154.283 278.417 157.2 275.5 160 272C163.033 268.5 165.483 264.417 167.35 259.75C169.45 254.85 170.5 249.483 170.5 243.65C170.5 238.75 169.683 233.967 168.05 229.3C166.65 224.4 164.667 219.5 162.1 214.6C161.867 213.9 161.517 213.317 161.05 212.85C160.817 212.15 160.467 211.567 160 211.1C159.767 210.4 159.533 209.817 159.3 209.35C159.067 208.65 158.717 207.95 158.25 207.25C155.917 202.583 153.467 197.8 150.9 192.9C148.333 187.767 145.883 182.633 143.55 177.5C141.45 172.133 139.7 166.767 138.3 161.4C137.133 155.8 136.55 150.2 136.55 144.6C136.55 131.767 139.35 120.8 144.95 111.7C150.783 102.6 158.6 95.6 168.4 90.7C178.2 85.5667 189.283 83 201.65 83C211.45 83 220.317 84.6333 228.25 87.9C236.183 90.9333 242.95 95.25 248.55 100.85C254.383 106.45 258.817 112.983 261.85 120.45C264.883 127.917 266.4 135.967 266.4 144.6H238.4C238.4 137.6 236.767 131.417 233.5 126.05C230.233 120.683 225.8 116.6 220.2 113.8C214.6 110.767 208.417 109.25 201.65 109.25C195.35 109.25 189.4 110.533 183.8 113.1C178.2 115.433 173.533 119.283 169.8 124.65C166.3 129.783 164.55 136.433 164.55 144.6C164.55 153.933 166.183 162.8 169.45 171.2C172.95 179.367 176.8 187.3 181 195C185.433 202.7 189.283 210.517 192.55 218.45C196.05 226.383 197.8 234.783 197.8 243.65Z" fill="white"/>
</g>
<defs>
<clipPath id="clip0_1996_777">
<rect width="400" height="400" fill="white"/>
</clipPath>
</defs>
</svg>
