<svg width="80" height="80" viewBox="0 0 80 80" fill="none" xmlns="http://www.w3.org/2000/svg">
<path d="M40.0023 0C17.9113 0 0 17.909 0 40.0023C0 62.0955 17.909 80 40.0023 80C62.0955 80 80 62.091 80 40.0023C80 17.9135 62.0933 0 40.0023 0ZM40.0023 75.0065C20.6675 75.0065 4.99349 59.3347 4.99349 40.0023C4.99349 20.6698 20.6675 4.99348 40.0023 4.99348C59.337 4.99348 75.0065 20.6675 75.0065 40.0023C75.0065 59.337 59.3347 75.0065 40.0023 75.0065Z" fill="#D8382B"/>
<path d="M42.3503 43.0598H40.8634V9.44727C42.7107 10.9047 46.972 14.6311 48.8194 19.0172C47.8946 19.4093 47.0174 19.9102 46.2354 20.5358C44.0594 22.2585 42.79 24.7178 42.4296 27.8504C42.3662 28.3989 42.3503 29.4801 42.3503 29.4801V43.0598ZM44.073 29.1515V43.0598H45.7956C46.2195 36.024 54.3773 29.8383 62.0069 33.8503C64.9513 28.4465 64.5138 20.5834 64.5138 20.5834C59.4954 19.1328 51.4533 18.5593 47.3166 21.8686C45.0748 23.6457 44.0752 26.4315 44.0752 29.1515H44.073ZM37.6515 43.0598H39.1384V9.44727C37.2911 10.9047 33.0297 14.6311 31.1824 19.0172C32.1072 19.4093 32.9844 19.9102 33.7664 20.5358C35.9424 22.2585 37.2117 24.7178 37.5721 27.8504C37.6356 28.3989 37.6515 29.4801 37.6515 29.4801V43.0598ZM32.6852 21.8664C28.5485 18.557 20.5064 19.1305 15.488 20.5812C15.488 20.5812 15.0482 28.4443 17.9949 33.848C25.6245 29.836 33.7823 36.024 34.2061 43.0575H35.9288V29.1492C35.9288 26.4269 34.9292 23.6434 32.6875 21.8664H32.6852ZM70.5591 47.1035C68.8817 43.0303 65.2641 37.4974 61.098 35.3236C54.7263 31.9961 47.9784 37.3047 47.5364 43.062H53.3142C52.6274 47.2871 49.9459 50.8594 46.283 52.7883C45.1406 53.3822 44.3744 54.5246 44.3744 55.8053V56.3856H35.6319V55.8053C35.6319 54.5246 34.8657 53.3822 33.7233 52.7883C30.0581 50.8594 27.3789 47.2871 26.6921 43.062H32.4699C32.0279 37.3047 25.28 31.9961 18.9084 35.3236C14.7422 37.4951 11.1246 43.028 9.44727 47.1035C12.6705 49.9822 18.4414 53.4683 23.0881 53.5998C22.1905 58.2012 24.2758 64.5274 26.4088 68.3695C30.6543 67.6101 37.2185 65.1349 40.0043 61.7462C42.79 65.1326 49.3543 67.6101 53.5998 68.3695C55.7327 64.5274 57.8181 58.2012 56.9205 53.5998C61.5694 53.4683 67.3404 49.9822 70.5613 47.1035H70.5591Z" fill="#D8382B"/>
</svg>
