<svg width="400" height="400" viewBox="0 0 400 400" fill="none" xmlns="http://www.w3.org/2000/svg">
<rect width="400" height="400" rx="200" fill="#10110E"/>
<g clip-path="url(#clip0_1994_760)">
<path d="M313.364 257.686L275.47 297.276C274.646 298.136 273.65 298.822 272.542 299.29C271.435 299.759 270.24 300.001 269.032 300H89.3992C88.542 300 87.7036 299.756 86.9868 299.298C86.2701 298.84 85.7062 298.188 85.3646 297.422C85.0229 296.657 84.9184 295.81 85.0637 294.988C85.2091 294.165 85.598 293.401 86.1828 292.79L124.105 253.2C124.926 252.342 125.92 251.658 127.024 251.19C128.128 250.721 129.319 250.478 130.523 250.476H310.146C311.003 250.476 311.842 250.72 312.559 251.178C313.275 251.636 313.839 252.288 314.182 253.054C314.523 253.82 314.627 254.666 314.482 255.489C314.336 256.312 313.948 257.075 313.364 257.686ZM275.47 177.962C274.646 177.102 273.65 176.416 272.542 175.948C271.435 175.479 270.24 175.238 269.032 175.238H89.3992C88.542 175.238 87.7036 175.482 86.9868 175.94C86.2701 176.398 85.7062 177.05 85.3646 177.815C85.0229 178.581 84.9184 179.428 85.0637 180.251C85.2091 181.073 85.598 181.837 86.1828 182.448L124.105 222.038C124.926 222.896 125.92 223.58 127.024 224.049C128.128 224.517 129.319 224.76 130.523 224.762H310.146C311.003 224.762 311.842 224.518 312.559 224.06C313.275 223.602 313.839 222.95 314.182 222.185C314.523 221.419 314.627 220.572 314.482 219.749C314.336 218.927 313.948 218.163 313.364 217.552L275.47 177.962ZM89.3992 149.524H269.032C270.24 149.524 271.435 149.283 272.542 148.814C273.65 148.346 274.646 147.66 275.47 146.8L313.364 107.21C313.948 106.599 314.336 105.835 314.482 105.012C314.627 104.19 314.523 103.343 314.182 102.577C313.839 101.812 313.275 101.16 312.559 100.702C311.842 100.244 311.003 100 310.146 100H130.523C129.319 100.002 128.128 100.245 127.024 100.713C125.92 101.182 124.926 101.866 124.105 102.724L86.1926 142.314C85.6084 142.924 85.2196 143.687 85.0739 144.509C84.9282 145.331 85.032 146.177 85.3724 146.942C85.7128 147.707 86.2752 148.359 86.9905 148.818C87.7057 149.277 88.5429 149.522 89.3992 149.524Z" fill="url(#paint0_linear_1994_760)"/>
</g>
<defs>
<linearGradient id="paint0_linear_1994_760" x1="104.376" y1="304.767" x2="287.257" y2="93.1449" gradientUnits="userSpaceOnUse">
<stop offset="0.08" stop-color="#9945FF"/>
<stop offset="0.3" stop-color="#8752F3"/>
<stop offset="0.5" stop-color="#5497D5"/>
<stop offset="0.6" stop-color="#43B4CA"/>
<stop offset="0.72" stop-color="#28E0B9"/>
<stop offset="0.97" stop-color="#19FB9B"/>
</linearGradient>
<clipPath id="clip0_1994_760">
<rect width="229.545" height="200" fill="white" transform="translate(85 100)"/>
</clipPath>
</defs>
</svg>
