<svg width="400" height="456" viewBox="0 0 400 456" fill="none" xmlns="http://www.w3.org/2000/svg">
<rect y="28" width="400" height="400" rx="200" fill="#10110E"/>
<path d="M215.84 85.62L243.96 90.56L234.46 143.38L206.34 138.44L215.84 85.62ZM164.92 374.42L174.04 321.6L202.16 326.54L193.04 379.36L164.92 374.42ZM133.38 266.12H161.5C162.26 277.013 166.313 285.88 173.66 292.72C181.26 299.307 192.28 302.6 206.72 302.6C215.08 302.6 221.793 301.587 226.86 299.56C231.927 297.28 235.473 294.24 237.5 290.44C239.78 286.387 240.92 281.953 240.92 277.14C240.92 271.313 239.4 266.753 236.36 263.46C233.573 259.913 229.647 257 224.58 254.72C219.767 252.44 214.193 250.16 207.86 247.88C200.513 245.347 192.913 242.56 185.06 239.52C177.46 236.227 170.24 232.427 163.4 228.12C156.813 223.56 151.493 217.987 147.44 211.4C143.387 204.813 141.36 196.96 141.36 187.84C141.36 180.24 142.88 173.147 145.92 166.56C148.96 159.973 153.267 154.273 158.84 149.46C164.667 144.393 171.38 140.467 178.98 137.68C186.833 134.893 195.447 133.5 204.82 133.5C217.487 133.5 228.127 136.033 236.74 141.1C245.607 146.167 252.32 153.26 256.88 162.38C261.693 171.5 264.227 182.14 264.48 194.3H238.26C236.487 183.153 232.813 175.047 227.24 169.98C221.92 164.66 214.193 162 204.06 162C193.673 162 185.693 164.28 180.12 168.84C174.547 173.4 171.76 179.48 171.76 187.08C171.76 192.653 173.787 197.34 177.84 201.14C181.893 204.687 187.087 207.853 193.42 210.64C200.007 213.427 206.973 216.34 214.32 219.38C221.667 222.42 228.76 225.46 235.6 228.5C242.44 231.54 248.52 235.213 253.84 239.52C259.16 243.573 263.34 248.64 266.38 254.72C269.673 260.547 271.32 267.893 271.32 276.76C271.32 287.4 268.787 296.9 263.72 305.26C258.907 313.367 251.687 319.7 242.06 324.26C232.687 328.82 221.16 331.1 207.48 331.1C192.28 331.1 179.613 328.693 169.48 323.88C159.6 319.067 151.873 313.113 146.3 306.02C140.98 298.673 137.307 291.453 135.28 284.36C133.253 277.013 132.62 270.933 133.38 266.12Z" fill="white"/>
</svg>
