<svg width="400" height="400" viewBox="0 0 400 400" fill="none" xmlns="http://www.w3.org/2000/svg">
<g clip-path="url(#clip0_1996_781)">
<rect width="400" height="400" rx="200" fill="#007BFF"/>
<path d="M211.8 68.65L237.7 73.2L228.95 121.85L203.05 117.3L211.8 68.65ZM164.9 334.65L173.3 286L199.2 290.55L190.8 339.2L164.9 334.65ZM135.85 234.9H161.75C162.45 244.933 166.183 253.1 172.95 259.4C179.95 265.467 190.1 268.5 203.4 268.5C211.1 268.5 217.283 267.567 221.95 265.7C226.617 263.6 229.883 260.8 231.75 257.3C233.85 253.567 234.9 249.483 234.9 245.05C234.9 239.683 233.5 235.483 230.7 232.45C228.133 229.183 224.517 226.5 219.85 224.4C215.417 222.3 210.283 220.2 204.45 218.1C197.683 215.767 190.683 213.2 183.45 210.4C176.45 207.367 169.8 203.867 163.5 199.9C157.433 195.7 152.533 190.567 148.8 184.5C145.067 178.433 143.2 171.2 143.2 162.8C143.2 155.8 144.6 149.267 147.4 143.2C150.2 137.133 154.167 131.883 159.3 127.45C164.667 122.783 170.85 119.167 177.85 116.6C185.083 114.033 193.017 112.75 201.65 112.75C213.317 112.75 223.117 115.083 231.05 119.75C239.217 124.417 245.4 130.95 249.6 139.35C254.033 147.75 256.367 157.55 256.6 168.75H232.45C230.817 158.483 227.433 151.017 222.3 146.35C217.4 141.45 210.283 139 200.95 139C191.383 139 184.033 141.1 178.9 145.3C173.767 149.5 171.2 155.1 171.2 162.1C171.2 167.233 173.067 171.55 176.8 175.05C180.533 178.317 185.317 181.233 191.15 183.8C197.217 186.367 203.633 189.05 210.4 191.85C217.167 194.65 223.7 197.45 230 200.25C236.3 203.05 241.9 206.433 246.8 210.4C251.7 214.133 255.55 218.8 258.35 224.4C261.383 229.767 262.9 236.533 262.9 244.7C262.9 254.5 260.567 263.25 255.9 270.95C251.467 278.417 244.817 284.25 235.95 288.45C227.317 292.65 216.7 294.75 204.1 294.75C190.1 294.75 178.433 292.533 169.1 288.1C160 283.667 152.883 278.183 147.75 271.65C142.85 264.883 139.467 258.233 137.6 251.7C135.733 244.933 135.15 239.333 135.85 234.9Z" fill="white"/>
</g>
<defs>
<clipPath id="clip0_1996_781">
<rect width="400" height="400" fill="white"/>
</clipPath>
</defs>
</svg>
